<?xml version="1.0" standalone="no"?>
<!DOCTYPE svg PUBLIC "-//W3C//DTD SVG 20010904//EN"
 "http://www.w3.org/TR/2001/REC-SVG-20010904/DTD/svg10.dtd">
<svg version="1.0" xmlns="http://www.w3.org/2000/svg"
 width="512.000000pt" height="512.000000pt" viewBox="0 0 512.000000 512.000000"
 preserveAspectRatio="xMidYMid meet">

<g transform="translate(0.000000,512.000000) scale(0.100000,-0.100000)"
fill="#000000" stroke="none">
<path d="M255 4466 c-41 -18 -83 -69 -90 -109 -3 -18 -4 -622 -3 -1344 3
-1307 3 -1312 24 -1339 11 -15 33 -37 48 -48 27 -21 28 -21 1884 -26 1697 -5
1862 -7 1912 -22 220 -66 368 -173 480 -345 77 -117 115 -235 129 -398 9 -102
20 -129 75 -169 20 -16 42 -21 86 -21 63 0 95 16 134 69 l21 27 0 1819 0 1819
-21 27 c-11 15 -33 37 -48 48 l-27 21 -2287 2 c-1886 2 -2292 0 -2317 -11z
m4098 -339 c-21 -19 -433 -367 -915 -775 l-878 -742 -915 775 -916 775 1830 0
1831 0 -37 -33z m-2873 -1023 c520 -440 963 -813 984 -829 33 -25 48 -30 97
-30 51 1 63 5 101 35 37 29 760 640 1721 1452 l257 218 0 -1180 0 -1179 -92
74 c-138 111 -294 187 -477 232 -60 15 -227 17 -1828 20 l-1763 3 0 1017 0
1017 28 -26 c15 -14 452 -385 972 -824z"/>
</g>
</svg>
